<svg xmlns="http://www.w3.org/2000/svg" width="141.73" height="141.73" viewBox="0 0 141.73 141.73">
    <path class="bg" fill="none" d="M0 0h141.73v141.73H0z"/>
    <path class="letter" fill="none" d="M101.512 92.471c-1.435-.674-3.271-6.533-3.749-9.178-.949-5.258-1.346-10.584-1.443-15.909-.177-9.52.376-19.006 1.042-28.5.431-6.16-13.026-5.352-17.862-2.313-2.461-.32-5.087-.28-7.029-.017-24.219 1.308-34.668 22.636-35.01 38.113-.078 2.865.045 5.479.365 7.84 1.439 10.627 6.82 16.711 16.144 18.254 3.509.625 6.745.74 9.712.338 5.039-.684 13.672-2.838 18.85-6.465a14.867 14.867 0 0 0 5.456 4.355c4.159 1.949 9.36 1.887 13.525 0 3.755-1.698 3.661-4.803-.001-6.518zm-44.738-7.207c-3.611-2.705-3.494-12.939-.939-18.946 2.552-6.007 6.654-10.42 12.313-13.242 3.021-1.506 6.599-1.969 9.506-1.412l-.749 18.191c.025.574.038 1.148.072 1.723.166 2.952.308 6.389.778 9.844-7.182 6.152-17.037 6.426-20.981 3.842z"/>
</svg>
