<svg xmlns="http://www.w3.org/2000/svg" width="141.73" height="141.73" viewBox="0 0 141.73 141.73">
    <path class="bg" fill="none" d="M0 0h141.73v141.73H0z"/>
    <path class="letter" fill="none" d="M100.963 89.667c-.342-15.477-10.791-36.805-35.01-38.113-1.769-.238-4.104-.291-6.367-.057l-.469-25.83c-2.564-3.374-17.125-4.909-16.707 1.07.582 8.291 1.064 52.257.912 60.57-.086 4.65-.434 9.301-1.262 13.893-.418 2.31-2.023 7.429-3.275 8.016-3.197 1.498-3.279 4.209 0 5.693 3.639 1.648 8.18 1.703 11.813 0 2.494-1.168 4.293-2.947 5.625-5.058 5.207 3.493 13.584 5.578 18.52 6.247 2.967.402 6.203.287 9.713-.338 9.322-1.543 14.703-7.627 16.143-18.254.319-2.36.442-4.974.364-7.839zm-19.315 10.596c-3.943 2.584-13.799 2.311-20.981-3.842.471-3.455.613-6.892.779-9.844.033-.574.047-1.148.072-1.723l-.75-18.191c2.908-.557 6.486-.094 9.506 1.412 5.659 2.822 9.762 7.235 12.313 13.242 2.556 6.007 2.673 16.241-.939 18.946z"/>
</svg>
