<svg xmlns="http://www.w3.org/2000/svg" width="141.73" height="141.73" viewBox="0 0 141.73 141.73">
    <path class="bg" fill="none" d="M0 0h141.73v141.73H0z"/>
    <path class="letter" fill="none" d="M95.258 43.696c-2.334-3.215-5.119-4.605-8.881-5.097v-.001c-.096-.012-.193-.021-.289-.032-.184-.021-.365-.044-.553-.062a29.218 29.218 0 0 0-2.934-.132l-.051-.001a49.212 49.212 0 0 0-1.631.019c-1.877.05-3.645.282-5.342.582a37.472 37.472 0 0 0-3.857.781l-.051.011v.002c-18.764 4.88-27.029 23.2-27.332 36.927-.078 2.865.045 5.48.365 7.842 1.439 10.625 6.82 16.709 16.143 18.252 3.51.627 6.746.74 9.713.338 3.638-.492 9.148-1.756 13.88-3.785l.002.006c.105-.045.205-.093.309-.139.139-.061.277-.121.414-.184 5.959-2.685 10.396-6.691 10.396-6.691 1.188-3.234-4.145-13.879-8.057-10.973a372.307 372.307 0 0 1-6.055 4.407c-6.67 4.01-14.371 3.769-17.796 1.524-3.611-2.705-3.494-12.939-.939-18.947 2.21-5.203 5.59-9.207 10.132-12.02 2.318-1.345 6.324-3.228 10.357-3.037 2.375-.125 7.566 1.033 8.287 2.023 1.836 2.533 4.418 2.213 5.398-.816 1.094-3.357.456-7.924-1.628-10.797z"/>
</svg>
