<svg xmlns="http://www.w3.org/2000/svg" width="141.73" height="141.73" viewBox="0 0 141.73 141.73">
    <path class="bg" fill="none" d="M0 0h141.731v141.73H0z"/>
    <path class="letter" fill="none" d="M100.751 110.567c-1.252-.587-2.857-5.706-3.275-8.016-.828-4.592-1.176-9.242-1.262-13.893-.152-8.313.33-52.279.912-60.57.418-5.979-14.143-4.444-16.707-1.07l-.469 25.831c-2.263-.234-4.599-.183-6.367.057-24.219 1.308-34.668 22.636-35.01 38.113-.078 2.865.045 5.479.365 7.84 1.439 10.627 6.82 16.711 16.143 18.254 3.51.625 6.746.74 9.713.338 4.937-.669 13.312-2.754 18.52-6.247 1.332 2.11 3.131 3.89 5.625 5.058 3.633 1.703 8.174 1.648 11.813 0 3.278-1.486 3.196-4.197-.001-5.695zm-42.863-8.953c-3.611-2.705-3.494-12.938-.939-18.945 2.551-6.007 6.654-10.42 12.313-13.242 3.02-1.506 6.598-1.969 9.506-1.412l-.75 18.191c.025.574.039 1.148.072 1.723.166 2.952.309 6.389.779 9.844-7.182 6.152-17.038 6.425-20.981 3.841z"/>
</svg>
