<svg xmlns="http://www.w3.org/2000/svg" width="141.73" height="141.73" viewBox="0 0 141.73 141.73">
    <path class="bg" fill="none" d="M0 .167h141.73v141.73H0z"/>
    <path class="letter" fill="none" d="M96.324 63.001c2.93-9.746-2.416-20.015-11.762-23.254-2.899-.901-5.752-1.276-8.435-1.321l.001-.002a34.237 34.237 0 0 0-1.248.005 1.411 1.411 0 0 0-.514-.03c-.953.051-1.877.145-2.787.256-.54.063-1.07.134-1.585.216l-.021.004c-6.069.974-10.248 3.167-10.248 3.167-1.376.581-2.778 1.447-3.929 2.516C44.673 52.3 39.594 65.805 39.357 76.512c-.078 2.865.045 5.479.365 7.84 1.071 7.908 4.329 13.297 9.767 16.174l-.001.004.039.018c.707.373 1.459.691 2.238.979.215.08.431.162.65.238.085.027.17.057.256.082 14.188 4.752 38.533-.418 41.695-7.869 1.387-3.268.984-7.861-.834-10.889-1.635-2.732-4.223-2.465-5.443.416-2.153 3.672-28.727 11.58-31.987-1.42a27.274 27.274 0 0 1-.216-4.145c3.303.178 12.501.395 21.578-1.863 12.102-2.895 14.813-6.844 14.813-6.844l-.005-.002c1.828-1.585 3.259-3.594 4.052-6.23zM59.8 64.193c2.509-4.02 5.919-7.115 10.245-9.272 1.043-.52 2.157-1.057 3.287-1.52 3.155-.831 5.003-.41 5.951-.093 1.045.349 2.242 1.342 2.854 3.025 1.006 3.765-4.994 5.439-6.424 5.834-.908.25-1.822.481-2.738.705-4.158.933-9.869 1.176-13.175 1.321z"/>
</svg>
