<svg xmlns="http://www.w3.org/2000/svg" width="141.73" height="141.73" viewBox="0 0 141.73 141.73">
    <path class="bg" fill="none" d="M0 .001h141.73v141.73H0z"/>
    <path class="letter" fill="none" d="M83.506 48.296c-2.218.246-4.087.437-5.638.581.414-3.846 1.217-7.875 1.981-9.782 1.049-2.619 4.021-6.429 5.273-7.015 3.197-1.499 3.279-5.21 0-6.694-3.637-1.647-8.18-1.702-11.813 0-8.938 4.189-12.172 16.045-12.615 23.94-.012.195-.017.39-.024.585l-3.521.233c-3.375 2.564-4.9 17.242 1.07 16.708 1.029-.146 1.918-.27 2.696-.373l.874 48.149c2.564 3.374 17.125 4.909 16.707-1.07-.431-6.157-.809-31.983-.911-48.276l6.989-.277c3.377-2.566 4.903-17.243-1.068-16.709z"/>
</svg>
