<svg xmlns="http://www.w3.org/2000/svg" width="141.73" height="141.73" viewBox="0 0 141.73 141.73">
    <path class="bg" fill="none" d="M0 0h141.73v141.73H0z"/>
    <path class="letter" fill="none" d="M101.014 89.414c-.063-2.143-.122-5.336-.225-9.111.06-.178.086-.381.039-.641-.024-.137-.046-.299-.069-.443-.184-6.35-.497-14.145-1.153-21.377-.017-.826-.029-1.575-.041-2.202-.176-9.519.377-19.006 1.043-28.5.432-6.16-13.025-5.352-17.863-2.313-2.461-.32-5.086-.28-7.029-.017-24.217 1.308-34.668 22.636-35.01 38.113-.078 2.864.045 5.479.365 7.84 1.439 10.627 6.82 16.709 16.145 18.254 3.51.625 6.746.738 9.711.336 4.091-.553 10.55-2.078 15.606-4.572.661 6.264.389 12.979-2.757 15.371-1.719 1.143-3.689 1.314-6.418 1.197l-.057-.059c-5.467-.689-8.945-.945-9.49-.938-1.975.021-3.933.188-5.779.555h-.002c-3.587.715-6.75 2.207-8.752 5.008-2.063 2.887-2.668 7.459-1.553 10.809 1.002 3.021 3.586 3.322 5.404.777.715-.996 5.896-2.191 8.273-2.084 0 0 9.116 1.1 17.22.805a33.328 33.328 0 0 0 4.21-.311c1.263-.15 2.441-.354 3.489-.623l.195-.051c.072-.02.148-.037.22-.057l-.005-.006c8.05-2.119 12.714-8.088 13.974-17.916.303-2.362.406-4.979.309-7.844zM60.02 73.52c-3.609-2.706-3.492-12.939-.939-18.947 2.553-6.006 6.654-10.42 12.313-13.241 3.021-1.506 6.6-1.97 9.508-1.413l-.191 18.191c.025.574.037 1.149.072 1.722.166 2.952-.252 6.389.219 9.845-7.184 6.151-17.039 6.427-20.982 3.843z"/>
</svg>
