<svg xmlns="http://www.w3.org/2000/svg" width="141.73" height="141.73" viewBox="0 0 141.73 141.73">
    <path class="bg" fill="none" d="M0 0h141.73v141.73H0z"/>
    <path class="letter" fill="none" d="M96.481 112.092c-.991-.721-2.149-5.912-2.024-8.287 0 0 1.167-9.118.929-17.228a33.238 33.238 0 0 0-.277-4.181c-.142-1.276-.339-2.468-.604-3.526l-.039-.155c-.021-.081-.04-.167-.062-.245l-.006.005c-2.062-8.066-7.994-12.772-17.815-14.103-2.361-.32-4.977-.443-7.842-.365-3.132.069-5.858.453-8.236 1.212-.037-5.827-.041-10.48-.001-12.646.086-4.65.433-9.301 1.262-13.893.417-2.31 2.022-7.429 3.274-8.015 3.197-1.499 3.279-4.21 0-5.694-3.638-1.647-8.18-1.702-11.813 0-8.938 4.189-9.172 16.045-9.615 23.94-.029.502-.041 1.002-.063 1.505l1.158 64.626c2.564 3.373 17.125 4.908 16.707-1.07-.231-3.307-.447-12.421-.614-22.708.107-1.315.216-2.943.353-5.034.65-9.928 15.487-7.76 18.186-2.908 1.274 1.945 1.308 4.695 1.076 8.487-.728 5.46-1.008 8.933-1.005 9.478.009 1.975.159 3.933.514 5.782v.004h.001c.688 3.593 2.157 6.765 4.942 8.787 2.873 2.084 7.439 2.723 10.797 1.631 3.029-.98 3.35-3.562.817-5.399z"/>
</svg>
