<svg xmlns="http://www.w3.org/2000/svg" width="141.73" height="141.73" viewBox="0 0 141.73 141.73">
    <path class="bg" fill="none" d="M0 0h141.73v141.73H0z"/>
    <g class="letter" fill="none">
        <path d="M81.623 40.685c-2.564-3.374-17.125-4.909-16.708 1.07.581 8.291 1.064 51.256.911 59.571-.086 4.65-.433 9.301-1.262 13.893-.417 2.309-2.022 7.428-3.274 8.015-3.197 1.499-3.279 4.21 0 5.694 3.638 1.647 8.18 1.702 11.813 0 8.938-4.189 9.172-16.045 9.615-23.939.029-.502.041-1.003.063-1.506l-1.158-62.798z"/>
        <circle clip-rule="evenodd" cx="73.34" cy="21.077" r="9.53"/>
    </g>
</svg>
