<svg xmlns="http://www.w3.org/2000/svg" width="141.73" height="141.73" viewBox="0 0 141.73 141.73">
    <path class="bg" fill="none" d="M0-.167h141.73v141.731H0z"/>
    <path class="letter" fill="none" d="M99.914 102.734c-1.299.473-6.055-2.014-7.984-3.352-3.832-2.66-7.365-5.703-10.715-8.932-2.793-2.691-4.137-4.133-5.332-5.541.227-.213.461-.434.713-.674.094-.08 21.994-22.115 21.994-22.115.719-4.176-8.088-15.873-12.176-11.49-4.322 4.637-19.424 19.656-19.424 19.656l-1.509 1.475-.837-46.107c-2.564-3.374-17.125-4.909-16.707 1.07.581 8.291 1.064 52.257.911 60.569-.086 4.65-.433 9.303-1.262 13.893-.417 2.311-2.022 7.43-3.274 8.016-3.197 1.498-3.279 4.211 0 5.695 3.638 1.646 8.18 1.701 11.813 0 6.592-3.09 8.445-10.346 9.144-17.111l5.483 6.18c.371.34.734.686 1.109 1.02 5.897 5.27 14.444 13.488 23.728 10.131 3.773-1.365 6.945-4.617 8.354-8.354 1.266-3.37-.709-5.23-4.029-4.029z"/>
</svg>
