<svg xmlns="http://www.w3.org/2000/svg" width="141.73" height="141.73" viewBox="0 0 141.73 141.73">
    <path class="bg" fill="none" d="M0 0h141.73v141.73H0z"/>
    <path class="letter" fill="none" d="M107.367 40.806c-3.418-2.188-7.574-3.345-12.02-3.345-6.193 0-12.533 2.191-17.391 6.012a25.513 25.513 0 0 0-1.84 1.619 24.149 24.149 0 0 0-5.032-4.287c-3.417-2.188-7.573-3.345-12.02-3.345-6.193 0-12.531 2.191-17.39 6.012a25.48 25.48 0 0 0-2.328 2.09 14.752 14.752 0 0 0-1.733-.974c-1.842-.876-4.189-1.359-6.609-1.359-2.432 0-4.815.481-6.716 1.355-1.825.838-2.878 2.133-2.888 3.552-.01 1.437 1.041 2.763 2.879 3.637.734.363 2.353 4.658 2.886 7.659.753 4.231 1.167 8.844 1.262 14.104.162 8.855-.39 17.762-.917 25.415-.076 1.089.254 2.036.98 2.813 1.729 1.852 5.221 2.128 7.148 2.128 4.043 0 9.219-1.172 10.847-3.344l.144-.192.736-30.04-.01-.247c.184-5.369.785-12.122 4.272-15.122 1.798-1.546 4.902-2.742 7.249-2.784 1.595-.088 3.633.559 5.152 1.853 1.303 1.583 1.61 3.534 1.854 5.094l.047.297c.029.867.324 9.65.397 14.134.147 8.833-.351 17.737-.829 25.39-.076 1.242.313 2.355 1.127 3.222 1.279 1.363 3.648 2.114 6.67 2.114 3.781 0 8.641-1.24 10.197-3.539l.191-.28.25-23.55c.127-2.77.162-5.596.033-8.406a54.839 54.839 0 0 0-.018-3.202c.443-4.114 1.459-8.192 3.959-10.342 1.797-1.546 4.902-2.742 7.25-2.784 1.596-.088 3.631.558 5.15 1.85 1.305 1.583 1.611 3.536 1.855 5.097l.047.297c.029.867.324 9.65.396 14.134.146 8.833-.35 17.737-.828 25.39-.078 1.242.313 2.355 1.125 3.222 1.281 1.363 3.65 2.114 6.672 2.114 3.781 0 8.641-1.24 10.197-3.539l.189-.28.25-23.55c.635-13.576-1.008-28.517-12.842-36.093z"/>
</svg>
