<svg xmlns="http://www.w3.org/2000/svg" width="142" height="142" viewBox="0 0 141.73 141.73">
    <path class="bg" fill="none" d="M0 0h142v142H0z"/>
    <path class="letter" fill="none" d="M107 41c-3-2-7-4-12-4-6 0-12 3-17 6a26 26 0 0 0-2 2 24 24 0 0 0-5-4c-3-2-7-4-12-4-6 0-12 3-17 6a25 25 0 0 0-3 3 15 15 0 0 0-1-1l-7-2-7 2c-2 0-3 2-3 3 0 2 1 3 3 4 1 0 3 4 3 7l1 15a294 294 0 0 1 0 28c2 2 6 2 8 2 4 0 9-1 10-3l1-1V70c1-5 1-12 5-15 1-2 5-3 7-3l5 2 2 5v15a324 324 0 0 1 1 28c1 2 3 2 6 2 4 0 9-1 10-3l1-1V77v-9a55 55 0 0 0 0-3c0-4 1-8 4-10 2-2 5-3 7-3l5 2c2 2 2 4 2 5l1 15a325 325 0 0 1 0 28c1 2 4 2 7 2s8-1 10-3V77c1-14-1-29-13-36z"/>
</svg>
