<svg xmlns="http://www.w3.org/2000/svg" width="141.73" height="141.73" viewBox="0 0 141.73 141.73">
    <path class="bg" fill="none" d="M0 0h141.73v141.73H0z"/>
    <path class="letter" fill="none" d="M100.159 71.698c.2-9.616-2.029-17.032-6.506-21.749a24.128 24.128 0 0 0-6.377-5.938c-3.417-2.188-7.574-3.345-12.02-3.345-6.193 0-12.531 2.191-17.39 6.012a25.48 25.48 0 0 0-2.328 2.09 14.833 14.833 0 0 0-1.733-.974c-1.842-.876-4.189-1.359-6.61-1.359-2.431 0-4.815.481-6.715 1.355-1.825.838-2.878 2.133-2.888 3.552-.01 1.437 1.04 2.763 2.878 3.637.735.363 2.353 4.658 2.887 7.659.753 4.231 1.166 8.844 1.261 14.104.162 8.855-.389 17.762-.917 25.415-.075 1.089.255 2.036.98 2.813 1.729 1.852 5.221 2.128 7.148 2.128 4.044 0 9.22-1.172 10.848-3.344l.144-.192.735-30.04-.009-.247c.183-5.369.784-12.122 4.271-15.122 1.798-1.546 4.903-2.742 7.25-2.784 1.597-.088 3.633.558 5.149 1.85 1.306 1.583 1.613 3.535 1.856 5.097l.047.297c.029.867.324 9.65.396 14.134.147 8.833-.35 17.737-.828 25.39-.077 1.242.313 2.355 1.126 3.222 1.28 1.363 3.649 2.114 6.671 2.114 3.781 0 8.641-1.24 10.197-3.539l.191-.28.249-23.55c.131-2.769.165-5.595.037-8.406z"/>
</svg>
