<svg xmlns="http://www.w3.org/2000/svg" width="141.73" height="141.73" viewBox="0 0 141.73 141.73">
    <path class="bg" fill="none" d="M0 0h141.73v141.73H0z"/>
    <path class="letter" fill="none" d="M99.653 59.238c-1.439-10.625-6.82-16.709-16.144-18.252a34.667 34.667 0 0 0-6.01-.55 28.685 28.685 0 0 0-1.271-.023l-.053-.001a49.176 49.176 0 0 0-1.631.02c-1.881.05-3.65.283-5.351.583a37.023 37.023 0 0 0-3.831.775l-.069.015v.003c-6.248 1.624-11.338 4.73-15.351 8.672-.731.587-1.148.962-1.148.962a2.562 2.562 0 0 0-.091.317c-7.184 7.795-10.551 18.303-10.742 26.976-.078 2.865.045 5.48.365 7.842 1.439 10.625 6.82 16.709 16.144 18.252 2.105.376 4.101.544 6.01.55.429.017.854.025 1.271.023l.053.001c.545.002 1.089-.004 1.631-.02 1.881-.05 3.65-.283 5.351-.583a37.023 37.023 0 0 0 3.831-.775l.069-.015v-.003c6.248-1.624 11.338-4.73 15.351-8.672.731-.587 1.148-.962 1.148-.962.036-.099.066-.205.091-.317 7.184-7.795 10.551-18.303 10.742-26.976.079-2.865-.044-5.48-.365-7.842zm-18.949-2.756c3.611 2.705 3.494 12.939.939 18.947-2.212 5.206-5.594 9.212-10.14 12.024-2.32 1.345-6.32 3.223-10.351 3.032-.342.018-.745.007-1.182-.023-1.054-.275-1.971-.657-2.694-1.131-3.611-2.705-3.494-12.939-.939-18.947 2.212-5.206 5.594-9.212 10.14-12.024 2.32-1.345 6.32-3.223 10.351-3.032.342-.018.745-.007 1.182.023 1.053.276 1.97.658 2.694 1.131z"/>
</svg>
