<svg xmlns="http://www.w3.org/2000/svg" width="142" height="142" viewBox="0 0 141.73 141.73">
    <path class="bg" fill="none" d="M0 0h142v142H0z"/>
    <path class="letter" fill="none" d="M100 59c-2-10-7-16-16-18a35 35 0 0 0-7-1 29 29 0 0 0-1 0 49 49 0 0 0-1 0l-6 1a37 37 0 0 0-4 1c-6 1-11 5-15 8l-1 1a3 3 0 0 0 0 1 42 42 0 0 0-11 35c2 10 7 16 16 18a35 35 0 0 0 8 0 49 49 0 0 0 7 0 37 37 0 0 0 4-1c6-2 11-5 15-9l1-1a42 42 0 0 0 11-35zm-19-3c3 3 3 13 1 19-3 6-6 10-10 12a20 20 0 0 1-12 3l-3-1c-3-2-3-13-1-19 3-5 6-9 10-12a20 20 0 0 1 12-3l3 1z"/>
</svg>
