<svg xmlns="http://www.w3.org/2000/svg" width="141.73" height="141.73" viewBox="0 0 141.73 141.73">
    <path class="bg" fill="none" d="M0 0h141.73v141.73H0z"/>
    <path class="letter" fill="none" d="M100.954 46.382c-1.439-10.627-6.82-16.71-16.143-18.254-3.51-.625-6.746-.739-9.713-.337-4.936.669-13.313 2.753-18.52 6.247-1.332-2.11-3.131-3.89-5.625-5.059-3.633-1.702-8.175-1.647-11.813 0-3.279 1.484-3.197 4.195 0 5.694 1.252.587 2.857 5.706 3.274 8.015.829 4.592 1.176 9.242 1.262 13.893.153 8.314-.33 52.279-.911 60.57-.418 5.979 14.143 4.445 16.707 1.07l.469-25.83c2.263.233 4.599.183 6.367-.057 24.219-1.308 34.668-22.637 35.01-38.113.079-2.864-.044-5.478-.364-7.839zm-18.01 16.19c-2.551 6.007-6.654 10.42-12.313 13.241-3.02 1.506-6.598 1.97-9.506 1.413l.75-18.192c-.025-.574-.039-1.148-.072-1.722-.166-2.952-.309-6.389-.779-9.845 7.182-6.151 17.037-6.426 20.98-3.842 3.612 2.706 3.495 12.94.94 18.947z"/>
</svg>
