<svg xmlns="http://www.w3.org/2000/svg" width="141.73" height="141.73" viewBox="0 0 141.73 141.73">
    <path class="bg" fill="none" d="M0 0h141.73v141.73H0z"/>
    <path class="letter" fill="none" d="M97.67 33.063c-3.638-1.647-8.18-1.702-11.813 0-2.494 1.169-4.293 2.948-5.625 5.059-5.208-3.494-13.583-5.578-18.52-6.247-2.967-.402-6.203-.288-9.713.337-9.322 1.544-14.703 7.627-16.143 18.254-.32 2.361-.443 4.976-.365 7.84.342 15.477 10.791 36.806 35.01 38.113 1.769.239 4.104.29 6.367.057l.469 25.83c2.564 3.375 17.125 4.909 16.707-1.07-.581-8.291-1.064-52.256-.911-60.57.086-4.65.433-9.301 1.262-13.893.417-2.309 2.022-7.428 3.274-8.015 3.198-1.499 3.28-4.21.001-5.695zM75.686 81.311c-2.908.557-6.486.093-9.506-1.413-5.658-2.821-9.762-7.234-12.313-13.241-2.555-6.007-2.672-16.241.939-18.946 3.943-2.584 13.799-2.31 20.98 3.842-.471 3.456-.613 6.893-.779 9.845-.033.573-.047 1.147-.072 1.722l.751 18.191z"/>
</svg>
