<svg xmlns="http://www.w3.org/2000/svg" width="141.73" height="141.73" viewBox="0 0 141.73 141.73">
    <path class="bg" fill="none" d="M0 0h141.73v141.73H0z"/>
    <path class="letter" fill="none" d="M92.999 58.967c-.601-3.948-3.028-7.787-6.434-9.908-7.934-4.934-18.835-1.842-25.799 1.833l-.006-2.065c-2.444-3.461-16.942-5.504-16.734.485.222 6.334.163 27.632.163 27.632l-.168 32.73c2.444 3.463 16.942 5.506 16.734-.484-.23-6.572-.165-19.814.092-29.174.003-.042-.006-3.657-.02-8.41.995-1.119 2.338-2.317 4.917-3.926 3.947-2.461 10.116-5.124 12.883-5.67 2.768-.545 7.582-.128 8.756.604 3.001 1.865 6.157-.089 5.616-3.647z"/>
</svg>
