<svg xmlns="http://www.w3.org/2000/svg" width="141.73" height="141.73" viewBox="0 0 141.73 141.73">
    <path class="bg" fill="none" d="M0 0h141.73v141.73H0z"/>
    <path class="letter" fill="none" d="M95.297 81.732c-1.312-4.364-4.154-7.379-7.672-9.552-3.541-2.816-7.776-4.479-12.447-5.71-3.075-.809-6.191-1.448-9.257-2.294-1.43-.396-7.434-2.071-6.429-5.838.612-1.686 2.058-2.222 3.104-2.571 1.043-.349 2.24-.605 6.676-.092 3.021.613 6.81 1.117 8.236 1.719.26.109.532.197.81.271 2.448.955 3.437 1.67 5.58 2.945 4.698 2.098 7.921-10.53 5.948-13.563 0 0-3.995-3.35-10.868-5.071-6.925-1.782-11.123-1.63-12.738-1.563a28.71 28.71 0 0 0-.718.005l-.018-.002.001.002c-2.684.045-5.538.42-8.439 1.322-9.353 3.242-14.701 13.518-11.769 23.271 1.312 4.362 4.154 7.377 7.671 9.55 3.542 2.817 7.777 4.479 12.449 5.71 3.075.811 6.191 1.45 9.258 2.296 1.43.395 7.433 2.07 6.429 5.838-.613 1.685-2.059 2.222-3.104 2.571-.643.215-1.346.394-2.826.38-.477-.022-.809-.065-.809-.065s-6.349-1.878-12.532-2.261c-4.89-.25-9.103.375-12.379 4.353-2.372 2.88-3.333 7.628-2.405 11.222.835 3.238 3.522 3.738 5.611 1.202.818-.993 6.168-1.345 8.523-1.228 1.754.086 3.288.256 4.827.464 6.123 1.557 11.975 1.884 17.519-.04 9.353-3.242 14.701-13.519 11.768-23.271z"/>
</svg>
