<svg xmlns="http://www.w3.org/2000/svg" width="141.73" height="141.73" viewBox="0 0 141.73 141.73">
    <path class="bg" fill="none" d="M0 0h141.73v141.73H0z"/>
    <path class="letter" fill="none" d="M81.914 109.34c-1.252-.588-4.225-4.396-5.273-7.016-1.051-2.619-2.176-9.242-2.262-13.893-.064-3.428-.02-12.918.098-23.467l6.891-.273c3.375-2.564 4.9-17.242-1.07-16.708-2.195.243-4.051.434-5.594.576.164-9.415.367-17.58.586-20.698.418-5.979-14.142-4.444-16.707-1.07l-.413 22.76-4.229.28c-3.374 2.564-4.9 17.242 1.07 16.708 1.102-.156 2.041-.286 2.856-.395l-.443 24.444c.021.504.033 1.004.063 1.506.443 7.895 3.677 19.75 12.615 23.939 3.632 1.703 8.175 1.648 11.812 0 3.279-1.484 3.197-5.195 0-6.693z"/>
</svg>
