<svg xmlns="http://www.w3.org/2000/svg" width="141.73" height="141.73" viewBox="0 0 141.73 141.73">
    <path class="bg" fill="none" d="M0 0h141.73v141.73H0z"/>
    <path class="letter" fill="none" d="M40.687 76.511c-.199 9.616 2.029 17.033 6.506 21.749a24.144 24.144 0 0 0 6.377 5.938c3.418 2.188 7.574 3.345 12.021 3.345 6.193 0 12.531-2.191 17.39-6.013a25.48 25.48 0 0 0 2.328-2.09c.539.352 1.113.68 1.732.974 1.843.876 4.19 1.358 6.611 1.358 2.43 0 4.814-.48 6.715-1.354 1.825-.839 2.877-2.134 2.887-3.552.01-1.438-1.039-2.763-2.877-3.637-.735-.363-2.354-4.658-2.887-7.659-.754-4.231-1.166-8.845-1.262-14.104-.162-8.856.389-17.763.918-25.415.074-1.09-.256-2.036-.98-2.813-1.73-1.853-5.221-2.128-7.148-2.128-4.045 0-9.221 1.172-10.848 3.344l-.145.191-.735 30.042.008.246c-.182 5.37-.783 12.122-4.271 15.123-1.797 1.545-4.902 2.742-7.249 2.783-1.597.089-3.633-.558-5.149-1.85-1.307-1.583-1.613-3.535-1.857-5.098l-.047-.297c-.029-.866-.324-9.65-.396-14.133-.146-8.833.35-17.738.828-25.391.078-1.241-.313-2.355-1.125-3.221-1.281-1.363-3.65-2.115-6.672-2.115-3.781 0-8.641 1.24-10.197 3.539l-.19.281-.249 23.549c-.131 2.772-.164 5.598-.037 8.408z"/>
</svg>
