<svg xmlns="http://www.w3.org/2000/svg" width="141.73" height="141.73" viewBox="0 0 141.73 141.73">
    <path class="bg" fill="none" d="M0 0h141.73v141.73H0z"/>
    <path class="letter" fill="none" d="M106.973 46.918c-2.516-3.102-6.552-5.184-10.563-5.287-9.868-.254-12.52 5.956-16.448 12.817-.251.436-.485.878-.73 1.319L66.21 80.699l-3.933-8.193s-9.83-23.088-12.223-28.957c-2.262-5.55-14.652 2.252-15.464 6.412 0 0 13.831 29.066 13.89 29.176 3.742 7.76 6.44 14.171 8.781 19.892 1.132 7.032 13.526 12.545 15.723 7.265 3.191-7.674 16.587-33.645 20.443-41.01 2.159-4.121 1.686-3.836 4.482-7.571 1.406-1.878 5.133-5.737 6.515-5.702 3.531.089 4.817-2.298 2.549-5.093z"/>
</svg>
