<svg xmlns="http://www.w3.org/2000/svg" width="142" height="142" viewBox="0 0 141.73 141.73">
    <path class="bg" fill="none" d="M0 0h142v142H0z"/>
    <path class="letter" fill="none" d="M34 106l12 3c7 0 13-2 18-6a25 25 0 0 0 2-1 24 24 0 0 0 5 4c3 2 7 3 12 3 6 0 12-2 17-6a25 25 0 0 0 2-2l2 1 7 2 6-2 3-3c0-2-1-3-3-4l-2-8-2-14a293 293 0 0 1 0-28c-1-2-5-2-7-2-4 0-9 1-11 3v1l-1 30c0 5 0 12-4 15l-7 3-5-2c-2-2-2-4-2-5v-1l-1-14a325 325 0 0 1 0-28c-1-2-4-2-7-2s-8 1-10 3v32a57 57 0 0 0 0 4c-1 4-2 8-4 10l-7 3-6-2-1-5v-1l-1-14a326 326 0 0 1 0-28c-1-2-4-2-7-2-4 0-8 1-10 3v24c-1 14 1 28 12 36z"/>
</svg>
