<svg xmlns="http://www.w3.org/2000/svg" width="141.73" height="141.73" viewBox="0 0 141.73 141.73">
    <path class="bg" fill="none" d="M0 0h141.73v141.73H0z"/>
    <path class="letter" fill="none" d="M93.552 38.486c-2.868 3.301-11.643 12.469-20.186 21.257-7.936-7.901-22.623-22.517-22.623-22.517-4.177-.721-15.873 8.087-11.49 12.175C42.857 52.76 56.028 65.93 61.718 71.63c-2.817 2.847-5.09 5.114-6.386 6.363-3.35 3.229-6.883 6.271-10.716 8.932-1.928 1.338-6.683 3.822-7.982 3.352-3.321-1.2-5.296.658-4.026 4.027 1.407 3.736 4.58 6.987 8.353 8.353 9.282 3.358 17.831-4.86 23.727-10.129.376-.334.738-.681 1.109-1.021l7.702-8.016 20.063 20.226c4.177.72 15.873-8.087 11.49-12.176-3.537-3.297-12.845-12.592-20.084-19.985l21.154-22.014c.572-4.198-8.638-15.579-12.57-11.056z"/>
</svg>
