<svg xmlns="http://www.w3.org/2000/svg" width="141.73" height="141.73" viewBox="0 0 141.73 141.73">
    <path class="bg" fill="none" d="M0 0h141.73v141.73H0z"/>
    <path class="letter" fill="none" d="M94.771 42.185c-2.648 3.301-10.751 12.469-18.64 21.257C68.805 55.54 55.24 40.924 55.24 40.924c-3.857-.72-14.658 8.087-10.61 12.175 3.327 3.36 15.491 16.529 20.745 22.229-2.602 2.848-4.7 5.115-5.897 6.364-3.093 3.228-6.355 6.271-9.896 8.932-1.78 1.338-6.171 3.822-7.371 3.352-3.067-1.201-4.891.658-3.718 4.027 1.299 3.736 4.229 6.986 7.713 8.352 8.571 3.358 16.466-4.859 21.91-10.129.348-.334.682-.68 1.024-1.02l37.239-41.965c.529-4.199-7.976-15.58-11.608-11.056z"/>
</svg>
