<svg xmlns="http://www.w3.org/2000/svg" width="141.73" height="141.73" viewBox="0 0 141.73 141.73">
    <path class="bg" fill="none" d="M0 0h141.73v141.73H0z"/>
    <path class="letter" fill="none" d="M102.343 41.262c-9.826 1.008-19.648 1.911-29.528 2.129-5.527.122-11.066-.034-16.558-.715-2.76-.342-8.906-1.832-9.657-3.15-1.912-3.371-5.139-3.331-6.764.263-1.805 3.987-1.648 9.702.526 13.528 5.352 9.418 19.441 9.12 28.841 9.232.597.01 1.192-.002 1.79 0-5.28 3.603-10.525 7.256-15.646 11.086-2.737 2.046-5.161 3.66-7.329 5.193-4.397 3.016-8.766 6.07-13.038 9.268-3.899 2.914-5.081 19.466 2.003 18.74 9.825-1.008 19.646-1.911 29.528-2.129 5.526-.124 11.066.035 16.559.715 2.758.342 10.958 1.751 11.708 3.072 1.914 3.369 5.14 3.33 6.766-.265 1.804-3.986 1.647-9.7-.526-13.528-5.352-9.416-21.497-9.039-30.895-9.152-.598-.008-1.192.002-1.79.002 4.032-2.753 7.564-5.516 11.29-8.373 8.32-5.609 16.684-11.161 24.723-17.176 3.897-2.914 5.081-19.468-2.003-18.74z"/>
</svg>
