<?xml version="1.0" standalone="no"?>
<!DOCTYPE svg PUBLIC "-//W3C//DTD SVG 20010904//EN" "http://www.w3.org/TR/2001/REC-SVG-20010904/DTD/svg10.dtd">
<svg
    version="1.0"
    xmlns="http://www.w3.org/2000/svg"
    width="1480.000000pt" height="1480.000000pt"
    viewBox="0 0 1480.000000 1480.000000"
    preserveAspectRatio="xMidYMid meet"
>
    <g transform="translate(0.000000,1480.000000) scale(0.100000,-0.100000)" fill="#000000" stroke="none">
        <path d="M4453 10930 c-162 -33 -282 -191 -367 -482 -81 -281 -73 -694 20
        -975 173 -520 617 -880 1299 -1053 357 -91 739 -134 1270 -145 143 -3 332 -7
        420 -10 88 -3 191 -5 229 -5 l69 0 -184 -126 c-507 -349 -900 -628 -1364 -969
        -296 -218 -474 -344 -1010 -715 -760 -527 -1180 -833 -1249 -912 -111 -126
        -200 -385 -247 -718 -21 -142 -15 -474 9 -611 64 -357 215 -553 437 -567 39
        -2 185 8 325 22 2343 239 3755 262 4845 80 392 -66 717 -147 847 -213 64 -32
        78 -44 119 -106 146 -215 341 -274 514 -155 197 136 333 604 295 1020 -51 568
        -312 950 -825 1207 -527 265 -1174 364 -2414 372 -179 1 -326 3 -328 5 -2 2
        40 34 94 71 157 109 446 322 753 558 157 120 449 329 650 464 1090 736 1510
        1028 2058 1431 276 203 311 247 395 488 132 379 149 904 41 1232 -53 157 -141
        280 -241 334 -98 53 -125 54 -578 9 -891 -89 -1444 -132 -2240 -173 -321 -16
        -1314 -17 -1560 0 -396 27 -687 59 -870 96 -359 73 -663 174 -753 250 -18 16
        -49 53 -69 83 -105 159 -254 240 -390 213z"/>
    </g>
</svg>
