<svg xmlns="http://www.w3.org/2000/svg" width="1973.333" height="1973.333" viewBox="0 0 1480 1480"><path d="M716.5 39.6c-27.7 1.7-40.8 2.7-51.5 4-131.8 15.8-252.5 66.1-354.5 147.8-101.8 81.5-177.3 187.5-221.3 310.4C43 630.7 36.5 776.6 71.1 910c18 69.6 47 136.9 85 197.2 29.6 47 68.4 94.4 107.9 131.7 67.4 63.7 138.8 109.8 222 143.1 66.4 26.6 135.4 42.6 208 48.2C715.3 1431.8 775.7 1431.8 797 1430.2c141.7-10.9 273.9-62.8 383.5-150.6 79-63.3 142.4-141.4 186.9-230.4 41.4-82.8 63.3-160.5 72.2-256.2 2.2-23.1 2.5-86.9.6-109.5-6.4-74.7-21.7-141.2-47.2-205-47-117.8-121-215.9-222.1-294.6C1065.2 101.6 933.5 51.1 798.5 41c-14.4-1.1-71.3-2.1-82-1.4M476.8 358.5c6.6 3 14.9 10.8 20.2 19 6.1 9.4 13.7 13.7 37.3 21.4 36.8 11.9 69.6 17.1 134.2 21.3C694 421.8 787.1 421.8 819.5 420.2c82.5-4.2 143.6-8.9 236-18.3 18.4-1.9 32.1-2.8 35.5-2.4 21.6 2.4 36.6 24.3 42.1 61.6 1.9 12.4 1.6 44-.5 58.4-3.2 22.5-9.3 43.6-16.2 56.2-1.8 3.5-3.2 6.3-2.9 6.3s-2 2.6-5 5.9c-11.9 12.6-95.7 72-217.5 154.1-30.1 20.3-57.4 39.7-77.5 55-34.1 26.1-54 40.8-74.5 55.1l-13.5 9.4 46.5.6c25.6.4 52.1.9 59 1.3 82.9 4.6 132.6 15.2 175 37.2 15.8 8.3 26 15.5 38.1 27.1 26 25.1 39.2 56.1 41.5 98 1.4 25.6-4.8 57.8-14.7 76.2-1.6 3-2.9 6.1-2.9 6.9 0 .9-.2 1.3-.5 1s-3 2-6 5.1c-7.2 7.6-13 10.4-22.1 10.9-5.7.3-8.1 0-11.9-1.7-7.3-3.2-13.6-8.3-18.5-15.1-9.8-13.3-11.1-14.2-26.5-19.4-34.4-11.6-90.1-21.1-154.5-26.3-27.1-2.2-140.9-2.5-177.5-.5-75.2 4.1-124.4 7.9-204.5 15.8-25.6 2.5-49.9 4.4-54 4.2-18.8-.8-32.3-14.8-40-41.5-4.1-14-5.4-25.1-5.4-46.3-.1-22.8 1.6-36.8 6.9-60 2.6-11.1 11.4-30.6 17.3-38.5 5.8-7.7 48.6-39 138.2-101.1 44.2-30.5 60.1-41.9 113-80.6 26.5-19.4 83.1-59.4 116.7-82.3l16-11-31.6-.7c-71.9-1.6-100.8-3.3-131.1-7.9-49.1-7.4-88.8-22.1-117.2-43.4-4.6-3.5-12.8-11-18.3-16.7-19.4-20.1-30.4-41.2-36.6-69.7-3.1-14.2-3.8-44.6-1.4-60.1 1-6.3 1.9-12.5 1.9-13.8.1-1.2.5-2.2 1-2.2s.7-.3.4-.6c-.8-.7 5.4-18.1 9.4-26.1 3.6-7.3 11.9-16.9 17.6-20.5 8.5-5.2 18.3-5.7 28-1.3m-71.1 94.7c-.3.8-.6.5-.6-.6-.1-1.1.2-1.7.5-1.3.3.3.4 1.2.1 1.9m-1 7c-.3.7-.5.2-.5-1.2s.2-1.9.5-1.3c.2.7.2 1.9 0 2.5m-1 14.5c-.2 1.6-.4.3-.4-2.7s.2-4.3.4-2.8c.2 1.6.2 4 0 5.5m0 15c-.2 2.1-.4.6-.4-3.2 0-3.9.2-5.5.4-3.8.2 1.8.2 5 0 7m1 12.5c-.3.7-.5.2-.5-1.2s.2-1.9.5-1.3c.2.7.2 1.9 0 2.5m1 7c-.3.8-.6.5-.6-.6-.1-1.1.2-1.7.5-1.3.3.3.4 1.2.1 1.9m29.4 66.5c1.3 1.6 1.2 1.7-.3.4-1.7-1.3-2.2-2.1-1.4-2.1.2 0 1 .8 1.7 1.7m5.5 6.5 2.9 3.3-3.2-2.9c-1.8-1.7-3.3-3.1-3.3-3.3 0-.8.8-.1 3.6 2.9m10.4 10.3c1.9 1.9 3.2 3.5 2.9 3.5s-2-1.6-3.9-3.5-3.2-3.5-2.9-3.5 2 1.6 3.9 3.5m7.1 6.2c1.3 1.6 1.2 1.7-.3.4-1-.7-1.8-1.5-1.8-1.7 0-.8.8-.3 2.1 1.3m638.9 20.6c0 .2-1.9 2.1-4.2 4.2l-4.3 4 4-4.3c3.6-3.9 4.5-4.7 4.5-3.9m-17 14.1c0 .2-.8 1-1.7 1.7-1.6 1.3-1.7 1.2-.4-.4s2.1-2.1 2.1-1.3m-4 3c0 .2-.8 1-1.7 1.7-1.6 1.3-1.7 1.2-.4-.4s2.1-2.1 2.1-1.3m-506.3 7.2c-.3.3-1.2.4-1.9.1-.8-.3-.5-.6.6-.6 1.1-.1 1.7.2 1.3.5m6 1c-.3.3-1.2.4-1.9.1-.8-.3-.5-.6.6-.6 1.1-.1 1.7.2 1.3.5m6 1c-.3.3-1.2.4-1.9.1-.8-.3-.5-.6.6-.6 1.1-.1 1.7.2 1.3.5m7.6 1.1C588.6 646.9 587.4 646.9 586.8 646.7c-.7-.3-.2-.5 1.2-.5s1.9.2 1.3.5m8.4.9c-.3.3-1.2.4-1.9.1-.8-.3-.5-.6.6-.6 1.1-.1 1.7.2 1.3.5m8.6 1.1C605.6 648.9 604.4 648.9 603.8 648.7c-.7-.3-.2-.5 1.2-.5s1.9.2 1.3.5m11.5 1C616.8 649.9 615.2 649.9 614.3 649.7c-1-.3-.2-.5 1.7-.5s2.7.2 1.8.5m15 1C631.8 650.9 630 650.9 628.8 650.7c-1.3-.2-.5-.4 1.7-.4 2.2-.1 3.2.1 2.3.4m20 1C651.3 651.9 648.6 651.9 646.8 651.7s-.6-.4 2.7-.4 4.8.2 3.3.4m41.4 1C690.2 652.9 683.9 652.9 680.2 652.7s-.4-.3 7.3-.3 10.7.2 6.7.3M828 808.4c0 .2-.8 1-1.7 1.7-1.6 1.3-1.7 1.2-.4-.4s2.1-2.1 2.1-1.3m-4 3c0 .2-.8 1-1.7 1.7-1.6 1.3-1.7 1.2-.4-.4s2.1-2.1 2.1-1.3m-9 7c0 .2-.8 1-1.7 1.7-1.6 1.3-1.7 1.2-.4-.4s2.1-2.1 2.1-1.3m-4 3c0 .2-.8 1-1.7 1.7-1.6 1.3-1.7 1.2-.4-.4s2.1-2.1 2.1-1.3m-13 10c0 .2-.8 1-1.7 1.7-1.6 1.3-1.7 1.2-.4-.4s2.1-2.1 2.1-1.3m-4 3c0 .2-.8 1-1.7 1.7-1.6 1.3-1.7 1.2-.4-.4s2.1-2.1 2.1-1.3m-4 3c0 .2-.8 1-1.7 1.7-1.6 1.3-1.7 1.2-.4-.4s2.1-2.1 2.1-1.3M336.7 986.2c-.3.8-.6.5-.6-.6-.1-1.1.2-1.7.5-1.3.3.3.4 1.2.1 1.9m-1 6c-.3.8-.6.5-.6-.6-.1-1.1.2-1.7.5-1.3.3.3.4 1.2.1 1.9m-1 8c-.3.7-.5.2-.5-1.2s.2-1.9.5-1.3c.2.7.2 1.9 0 2.5m-1 11.5c-.3 1-.5.2-.5-1.7s.2-2.7.5-1.8c.2 1 .2 2.6 0 3.5m0 33c-.3 1-.5.2-.5-1.7s.2-2.7.5-1.8c.2 1 .2 2.6 0 3.5m1 8.5c-.3.8-.6.5-.6-.6-.1-1.1.2-1.7.5-1.3.3.3.4 1.2.1 1.9m1 7c-.3.8-.6.5-.6-.6-.1-1.1.2-1.7.5-1.3.3.3.4 1.2.1 1.9m351.6 33.5c-2.4.2-6.2.2-8.5-5.756318614658085e-6-2.4-.2-.5-.4 4.2-.4s6.6.2 4.3.4m88.4 0c-2 .2-5.2.2-7-5.756318614658085e-6-1.7-.2 0-.4 3.8-.4 3.9 0 5.3.2 3.2.4m-119.9 1c-1.6.2-4 .2-5.5-5.741417453464237e-6-1.6-.2-.3-.4 2.7-.4s4.3.2 2.8.4m143.5 0c-1.3.2-3.5.2-5-5.741417453464237e-6-1.6-.2-.5-.4 2.2-.4 2.8 0 4 .2 2.8.4m-165.5 1c-1.6.2-4 .2-5.5-5.726516292270389e-6-1.6-.2-.3-.4 2.7-.4s4.3.2 2.8.4m181 0c-1 .2-2.8.2-4-5.726516292270389e-6-1.3-.2-.5-.4 1.7-.4 2.2-.1 3.2.1 2.3.4m-201.5 1C612 1096.9 610 1096.9 608.8 1096.7c-1.3-.2-.3-.4 2.2-.4s3.5.2 2.3.4m215 0c-.7.2-2.1.2-3-5.711615131076542e-6-1-.3-.4-.5 1.2-.5 1.7 0 2.4.2 1.8.5m-231 1C596 1097.9 594 1097.9 592.8 1097.7c-1.3-.2-.3-.4 2.2-.4s3.5.2 2.3.4m243 0c-.7.2-2.1.2-3-5.696713969882694e-6-1-.3-.4-.5 1.2-.5 1.7 0 2.4.2 1.8.5m-260.5 1c-1 .2-2.6.2-3.5-5.681812808688846e-6-1-.3-.2-.5 1.7-.5s2.7.2 1.8.5m269.5 0c-.7.2-1.9.2-2.5-5.681812808688846e-6-.7-.3-.2-.5 1.2-.5s1.9.2 1.3.5m-497.2 2c1.3 1.6 1.2 1.7-.3.4-1.7-1.3-2.2-2.1-1.4-2.1.2 0 1 .8 1.7 1.7m214.7-1c-1 .2-2.8.2-4-5.666911647494999e-6-1.3-.2-.5-.4 1.7-.4 2.2-.1 3.2.1 2.3.4m291.9-.1c-.3.3-1.2.4-1.9.1-.8-.3-.5-.6.6-.6 1.1-.1 1.7.2 1.3.5m-306.9 1.1c-1 .2-2.6.2-3.5-5.652010486301151e-6-1-.3-.2-.5 1.7-.5s2.7.2 1.8.5m315.5 0c-.7.2-1.9.2-2.5-5.652010486301151e-6-.7-.3-.2-.5 1.2-.5s1.9.2 1.3.5m-329 1c-.7.2-2.1.2-3-5.6371093251073034e-6-1-.3-.4-.5 1.2-.5 1.7 0 2.4.2 1.8.5m336.4-.1c-.3.3-1.2.4-1.9.1-.8-.3-.5-.6.6-.6 1.1-.1 1.7.2 1.3.5m-348.4 1.1c-.7.2-2.1.2-3-5.622208163913456e-6-1-.3-.4-.5 1.2-.5 1.7 0 2.4.2 1.8.5m355.4-.1c-.3.3-1.2.4-1.9.1-.8-.3-.5-.6.6-.6 1.1-.1 1.7.2 1.3.5m-367.4 1.1c-.7.2-2.1.2-3-5.607307002719608e-6-1-.3-.4-.5 1.2-.5 1.7 0 2.4.2 1.8.5m-12 1c-.7.2-2.1.2-3-5.5924058415257605e-6-1-.3-.4-.5 1.2-.5 1.7 0 2.4.2 1.8.5m-12 1c-.7.2-2.1.2-3-5.577504680331913e-6-1-.3-.4-.5 1.2-.5 1.7 0 2.4.2 1.8.5m-131.2 2c1.3 1.6 1.2 1.7-.3.4-1.7-1.3-2.2-2.1-1.4-2.1.2 0 1 .8 1.7 1.7m121.2-1c-.7.2-2.1.2-3-5.562603519138065e-6-1-.3-.4-.5 1.2-.5 1.7 0 2.4.2 1.8.5m425.4-.1c-.3.3-1.2.4-1.9.1-.8-.3-.5-.6.6-.6 1.1-.1 1.7.2 1.3.5m-437.4 1.1c-.7.2-2.1.2-3-5.5477023579442175e-6-1-.3-.4-.5 1.2-.5 1.7 0 2.4.2 1.8.5m-11 1c-.7.2-1.9.2-2.5-5.53280119675037e-6-.7-.3-.2-.5 1.2-.5s1.9.2 1.3.5m459.4-.1c-.3.3-1.2.4-1.9.1-.8-.3-.5-.6.6-.6 1.1-.1 1.7.2 1.3.5m-469.4 1.1c-.7.2-1.9.2-2.5-5.517900035556522e-6-.7-.3-.2-.5 1.2-.5s1.9.2 1.3.5m-10 1c-.7.2-2.1.2-3-5.5029988743626745e-6-1-.3-.4-.5 1.2-.5 1.7 0 2.4.2 1.8.5m489.4-.1c-.3.3-1.2.4-1.9.1-.8-.3-.5-.6.6-.6 1.1-.1 1.7.2 1.3.5m-500.4 1.1c-.7.2-1.9.2-2.5-5.488097713168827e-6-.7-.3-.2-.5 1.2-.5s1.9.2 1.3.5m-10 1c-.7.2-1.9.2-2.5-5.473196551974979e-6-.7-.3-.2-.5 1.2-.5s1.9.2 1.3.5m-10 1c-.7.2-1.9.2-2.5-5.4582953907811316e-6-.7-.3-.2-.5 1.2-.5s1.9.2 1.3.5m-10 1c-.7.2-1.9.2-2.5-5.443394229587284e-6-.7-.3-.2-.5 1.2-.5s1.9.2 1.3.5m-11 1c-1.8.2-4.8.2-6.5-5.428493068393436e-6-1.8-.2-.4-.4 3.2-.4s5 .2 3.3.4m611.8 27c1.3 1.6 1.2 1.7-.3.4-1-.7-1.8-1.5-1.8-1.7 0-.8.8-.3 2.1 1.3m51.9 4.8c-2.4 2.5-4.6 4.5-4.9 4.5s1.5-2 3.9-4.5 4.6-4.5 4.9-4.5-1.5 2-3.9 4.5m-43.9 3.2c1.3 1.6 1.2 1.7-.3.4-1-.7-1.8-1.5-1.8-1.7 0-.8.8-.3 2.1 1.3m22.2 8c-1.3.2-3.3.2-4.5-4.787743137057987e-6-1.3-.2-.3-.4 2.2-.4s3.5.2 2.3.4"/></svg>