<?xml version="1.0" encoding="utf-8"?>
<!-- Generator: Adobe Illustrator 16.0.0, SVG Export Plug-In . SVG Version: 6.00 Build 0)  -->
<!DOCTYPE svg PUBLIC "-//W3C//DTD SVG 1.1//EN" "http://www.w3.org/Graphics/SVG/1.1/DTD/svg11.dtd">
<svg version="1.1" id="Calque_1" xmlns="http://www.w3.org/2000/svg" xmlns:xlink="http://www.w3.org/1999/xlink" x="0px" y="0px"
	 width="283.46px" height="70px" viewBox="0 0 283.46 70" enable-background="new 0 0 283.46 70" xml:space="preserve">
<path fill="#FFFFFF" d="M108.891,48.432c-0.504-0.372-1.592-3.346-1.939-5.303c-0.539-3.025-0.833-6.323-0.901-10.082
	c-0.116-6.348,0.278-12.736,0.658-18.225c0.059-0.855-0.212-1.63-0.783-2.242c-1.251-1.341-3.599-1.623-5.348-1.623
	c-2.976,0-6.799,0.883-8.026,2.52l-0.155,0.208l-0.851,20.929l-0.001,0.035l0.018,0.447c0.008,0.235,0.017,0.471,0.03,0.704
	l0.042,0.772c0.088,1.644,0.187,3.499,0.426,5.374c-0.757,1.656-1.818,3.079-3.158,4.231c-1.138,0.979-3.328,1.359-4.999,1.389
	c-0.139,0.002-0.262,0.003-0.373,0.003c-0.61,0-0.78-0.035-1.559-0.262c-1.667-0.484-2.33-2.532-2.592-4.165
	c-0.487-3.026-0.754-6.327-0.815-10.094c-0.105-6.34,0.251-12.735,0.595-18.23c0.056-0.899-0.226-1.705-0.815-2.333
	c-0.924-0.984-2.632-1.526-4.808-1.526c-2.722,0-6.221,0.894-7.345,2.552l-0.134,0.198l-0.768,20.909l-0.001,0.031l0.016,0.441
	c0.007,0.236,0.016,0.471,0.028,0.706c0.282,5.627,1.428,13.146,5.286,17.065c1.226,1.556,2.688,2.882,4.347,3.945
	c2.501,1.601,5.541,2.447,8.791,2.447c4.512,0,9.13-1.597,12.669-4.381c0.531-0.418,1.046-0.873,1.539-1.356
	c0.347,0.219,0.704,0.415,1.069,0.589c1.362,0.648,3.093,1.005,4.874,1.005c0,0,0,0,0,0c1.786,0,3.543-0.354,4.945-0.999
	c1.419-0.652,2.238-1.679,2.246-2.817C111.103,50.144,110.289,49.094,108.891,48.432z"/>
<path fill="#FFFFFF" d="M58.559,11.92c-6.889,0.707-13.774,1.339-20.702,1.493c-3.875,0.086-7.758-0.024-11.607-0.501
	c-1.935-0.239-6.245-1.284-6.77-2.209c-1.342-2.363-3.603-2.335-4.743,0.185c-1.265,2.795-1.155,6.801,0.369,9.485
	c3.751,6.603,13.631,6.394,20.22,6.473c0.418,0.006,0.836-0.001,1.255,0c-3.701,2.526-7.378,5.086-10.969,7.771
	c-1.92,1.435-3.619,2.568-5.138,3.642c-3.084,2.114-6.146,4.257-9.141,6.496c-2.735,2.044-3.564,13.648,1.403,13.14
	c6.888-0.707,13.774-1.339,20.702-1.493c3.874-0.086,7.758,0.025,11.608,0.503c1.934,0.238,7.684,1.227,8.208,2.152
	c1.342,2.362,3.604,2.335,4.744-0.185c1.264-2.797,1.155-6.802-0.37-9.485c-3.752-6.603-15.071-6.337-21.659-6.416
	c-0.418-0.006-0.836,0.001-1.255,0.001c2.827-1.931,5.303-3.867,7.915-5.871c5.833-3.932,11.696-7.824,17.333-12.04
	C62.696,23.017,63.525,11.411,58.559,11.92z"/>
<path fill="none" d="M182.604,36.231l0.547-13.261c-2.12-0.406-4.729-0.068-6.931,1.03c-4.123,2.057-7.114,5.273-8.975,9.652
	c-1.861,4.379-1.947,11.839,0.685,13.81c2.875,1.885,10.059,1.684,15.294-2.8c-0.343-2.52-0.446-5.023-0.567-7.176
	C182.632,37.068,182.622,36.649,182.604,36.231z"/>
<path fill="#FFFFFF" d="M200.541,52.714c-1.046-0.489-2.385-4.761-2.733-6.688c-0.691-3.832-0.981-7.715-1.053-11.596
	c-0.129-6.938,0.275-13.854,0.761-20.774c0.313-4.49-9.495-3.901-13.021-1.687c-1.793-0.233-3.707-0.204-5.123-0.013
	c-17.653,0.954-25.271,16.5-25.52,27.781c-0.035,1.299-0.008,2.518,0.07,3.675c3.377,1.02,5.846,4.157,5.846,7.864
	c0,1.506-0.414,2.914-1.125,4.129c1.87,1.745,4.283,2.863,7.242,3.353c2.559,0.456,4.918,0.54,7.079,0.247
	c3.674-0.497,9.966-2.068,13.741-4.712c1.021,1.303,2.318,2.397,3.977,3.175c3.031,1.421,6.823,1.375,9.859,0
	C203.277,56.229,203.21,53.965,200.541,52.714z M167.93,47.461c-2.632-1.971-2.546-9.431-0.685-13.81
	c1.86-4.378,4.852-7.595,8.975-9.652c2.202-1.098,4.811-1.436,6.931-1.03l-0.547,13.261c0.019,0.418,0.028,0.837,0.053,1.255
	c0.121,2.152,0.225,4.656,0.567,7.176C177.988,49.145,170.805,49.346,167.93,47.461z"/>
<path fill="#FFFFFF" d="M150.397,43.152c-0.075-0.992-0.255-1.991-0.553-2.983c-0.974-3.238-3.082-5.475-5.69-7.086
	c-2.629-2.092-5.772-3.326-9.24-4.239c-2.282-0.601-4.594-1.075-6.869-1.702c-1.061-0.294-5.517-1.537-4.771-4.333
	c0.455-1.25,1.527-1.648,2.304-1.908c0.774-0.259,1.662-0.45,4.954-0.067c2.242,0.454,5.053,0.828,6.112,1.275
	c0.192,0.082,0.394,0.146,0.6,0.201c1.817,0.708,2.55,1.239,4.141,2.186c3.486,1.557,5.878-7.815,4.414-10.065
	c0,0-2.964-2.486-8.065-3.763c-5.136-1.322-8.25-1.21-9.451-1.16c-0.178,0-0.356,0.001-0.536,0.003c-0.003,0-0.009,0-0.012-0.001
	l0.001,0.002c-1.992,0.033-4.11,0.312-6.263,0.98c-6.94,2.406-10.909,10.031-8.733,17.268c0.974,3.24,3.084,5.477,5.696,7.089
	c2.627,2.09,5.769,3.322,9.234,4.235c2.282,0.602,4.595,1.076,6.87,1.703c1.061,0.293,5.516,1.537,4.771,4.332
	c-0.455,1.251-1.527,1.649-2.304,1.909c-0.477,0.158-1,0.292-2.1,0.28c-0.352-0.016-0.597-0.047-0.597-0.047s-4.711-1.395-9.3-1.678
	c-3.627-0.186-6.754,0.278-9.186,3.229c-1.76,2.138-2.474,5.661-1.785,8.327c0.62,2.403,2.614,2.774,4.164,0.893
	c0.607-0.737,4.577-0.998,6.325-0.912c1.302,0.064,2.44,0.189,3.582,0.345c4.544,1.155,8.886,1.398,13.001-0.029
	c1.269-0.439,2.437-1.055,3.487-1.81c-0.793-1.263-1.26-2.751-1.26-4.35C143.339,47.14,146.415,43.717,150.397,43.152z"/>
<path fill="#FFFFFF" d="M277.712,34.896c-0.008-0.24-0.016-0.48-0.028-0.719c-0.333-6.646-1.792-15.299-6.853-18.789
	c-0.013-0.009-0.026-0.016-0.039-0.024c-0.931-0.954-1.981-1.827-3.179-2.593c-2.53-1.62-5.607-2.477-8.899-2.477
	c-4.586,0-9.279,1.623-12.875,4.452c-0.652,0.513-1.271,1.073-1.857,1.677c-0.387-0.376-0.79-0.731-1.229-1.034
	c-0.013-0.009-0.026-0.016-0.039-0.024c-0.931-0.954-1.981-1.827-3.179-2.593c-2.53-1.62-5.607-2.477-8.899-2.477
	c-4.245,0-8.58,1.393-12.055,3.844c-0.968-1.409-2.205-2.598-3.807-3.446c-1.37-0.726-3.115-1.125-4.916-1.125
	c-1.808,0-3.581,0.398-4.992,1.122c-1.338,0.684-2.109,1.726-2.117,2.859c-0.009,1.15,0.761,2.22,2.108,2.935
	c0.553,0.317,1.763,3.886,2.157,6.365c0.56,3.497,0.865,7.308,0.937,11.653c0.119,7.311-0.288,14.661-0.68,20.977
	c-0.059,0.936,0.222,1.738,0.831,2.386c0.981,1.045,2.823,1.619,5.188,1.619c3.003,0,6.843-0.967,8.048-2.756l0.088-0.132
	l0.871-23.945l-0.016-0.454c-0.009-0.275-0.018-0.549-0.031-0.823l-0.045-0.912c-0.049-1.028-0.101-2.113-0.176-3.227
	c0.778-1.545,1.814-2.888,3.1-3.993c1.049-0.901,3.047-1.464,5.347-1.504c0.471-0.008,0.745-0.007,1.012,0.025
	c0.274,0.23,0.604,0.408,0.987,0.518c1.735,0.5,2.424,2.625,2.696,4.318c0.503,3.122,0.777,6.527,0.841,10.412
	c0.109,6.539-0.259,13.133-0.613,18.799c-0.058,0.92,0.231,1.743,0.833,2.385c0.949,1.01,2.703,1.565,4.939,1.565
	c2.8,0,6.398-0.918,7.552-2.619l0.134-0.199l0.791-21.551l0.001-0.031l-0.016-0.462c-0.009-0.24-0.016-0.48-0.028-0.719
	c-0.074-1.471-0.208-3.042-0.419-4.632c0.779-2.542,2.134-4.678,4.022-6.303c1.049-0.901,3.048-1.464,5.348-1.504
	c0.471-0.008,0.746-0.007,1.011,0.025c0.275,0.23,0.604,0.408,0.987,0.518c1.736,0.5,2.424,2.624,2.696,4.318
	c0.503,3.116,0.777,6.521,0.842,10.412c0.108,6.527-0.26,13.126-0.613,18.799c-0.058,0.92,0.23,1.743,0.833,2.385
	c0.948,1.01,2.702,1.565,4.939,1.565c2.8,0,6.397-0.918,7.551-2.619l0.135-0.199l0.791-21.551l0.001-0.031L277.712,34.896z"/>
<circle fill="#F9AD1C" cx="151.553" cy="51.276" r="5.435"/>
</svg>
